<?xml version="1.0" encoding="UTF-8" standalone="no"?>
<svg
   xmlns:dc="http://purl.org/dc/elements/1.1/"
   xmlns:cc="http://creativecommons.org/ns#"
   xmlns:rdf="http://www.w3.org/1999/02/22-rdf-syntax-ns#"
   xmlns:svg="http://www.w3.org/2000/svg"
   xmlns="http://www.w3.org/2000/svg"
   xmlns:sodipodi="http://sodipodi.sourceforge.net/DTD/sodipodi-0.dtd"
   xmlns:inkscape="http://www.inkscape.org/namespaces/inkscape"
   version="1.1"
   id="Layer_1"
   x="0px"
   y="0px"
   width="600px"
   height="206.126px"
   viewBox="-185.972 203.833 600 206.126"
   enable-background="new -185.972 203.833 600 206.126"
   xml:space="preserve"
   sodipodi:docname="uart-port-tx-rx.svg"
   inkscape:version="1.0 (4035a4f, 2020-05-01)"><metadata
   id="metadata239"><rdf:RDF><cc:Work
       rdf:about=""><dc:format>image/svg+xml</dc:format><dc:type
         rdf:resource="http://purl.org/dc/dcmitype/StillImage" /></cc:Work></rdf:RDF></metadata><defs
   id="defs237" /><sodipodi:namedview
   inkscape:document-rotation="0"
   pagecolor="#ffffff"
   bordercolor="#666666"
   borderopacity="1"
   objecttolerance="10"
   gridtolerance="10"
   guidetolerance="10"
   inkscape:pageopacity="0"
   inkscape:pageshadow="2"
   inkscape:window-width="1305"
   inkscape:window-height="869"
   id="namedview235"
   showgrid="false"
   inkscape:zoom="2.1735998"
   inkscape:cx="201.48922"
   inkscape:cy="34.633797"
   inkscape:window-x="97"
   inkscape:window-y="23"
   inkscape:window-maximized="0"
   inkscape:current-layer="Layer_1"
   inkscape:lockguides="false" />


<path
   fill="#16763C"
   d="M-172.743,391.36h20.214v18.6h99.581v-15.514h94.806v15.514l339.542-0.001v-30.945h-91.281v-93.485h83.207  c-3.803-3.122-8.67-4.997-13.977-4.997h-523.272c-12.177-0.001-22.048,9.87-22.048,22.047V409.96h13.229V391.36z M-141.307,282.359  h347.349v18.309c0-10.958,8.887-19.843,19.846-19.843s19.844,8.885,19.844,19.843c0,10.959-8.885,19.844-19.844,19.844  s-19.846-8.885-19.846-19.844v19.652h-347.349V282.359z M-161.279,280.825c10.958,0,19.843,8.885,19.843,19.843  c0,10.96-8.885,19.845-19.843,19.845c-10.96,0-19.844-8.885-19.844-19.845C-181.121,289.709-172.239,280.825-161.279,280.825z"
   id="path148" />
<path
   d="M206.041,300.668v-18.309h-347.349v37.961h347.349V300.668z"
   id="path150" />
<path
   fill="#DBC877"
   d="M225.887,320.512c10.959,0,19.844-8.885,19.844-19.844c0-10.958-8.885-19.843-19.844-19.843  s-19.846,8.885-19.846,19.843C206.041,311.627,214.928,320.512,225.887,320.512z M225.887,291.918c4.834,0,8.75,3.917,8.75,8.75  c0,4.834-3.916,8.75-8.75,8.75s-8.75-3.916-8.75-8.75C217.137,295.835,221.053,291.918,225.887,291.918z"
   id="path152" />
<circle
   fill="#FFFFFF"
   cx="225.887"
   cy="300.668"
   r="8.75"
   id="circle154" />
<path
   fill="#DBC877"
   d="M-161.279,320.513c10.958,0,19.843-8.885,19.843-19.845c0-10.958-8.885-19.843-19.843-19.843  c-10.96,0-19.844,8.885-19.844,19.843C-181.121,311.628-172.239,320.513-161.279,320.513z M-161.279,291.918  c4.833,0,8.749,3.917,8.749,8.75c0,4.833-3.916,8.751-8.749,8.751c-4.834,0-8.75-3.918-8.75-8.751  C-170.029,295.835-166.113,291.918-161.279,291.918z"
   id="path156" />
<circle
   fill="#FFFFFF"
   cx="-161.279"
   cy="300.669"
   r="8.75"
   id="circle158" />
<path
   fill="#3F403F"
   d="M-52.949,409.96v-15.514h94.806v15.514H-52.949z"
   id="path160" />
<path
   fill="#CBBAB3"
   d="M290.117,379.014h91.279h32.631v-93.485h-40.703h-83.207V379.014z M399.43,306.139l-32.098-4.779  c-1.357-0.203-2.473-1.218-2.473-2.257s1.113-1.723,2.473-1.521l36.506,5.438c1.359,0.203,2.475,1.494,2.475,2.869v10.652  c0,1.375-1.113,2.666-2.475,2.869l-36.506,5.438c-1.357,0.201-2.473-0.658-2.473-1.914c0-1.254,1.117-2.424,2.48-2.6l32.082-4.094  c1.363-0.174,2.479-1.441,2.479-2.816v-4.418C401.903,307.631,400.789,306.34,399.43,306.139z M399.43,349.354l-32.098-4.781  c-1.357-0.201-2.473-1.217-2.473-2.256c0-1.037,1.113-1.721,2.473-1.52l36.506,5.438c1.359,0.201,2.475,1.492,2.475,2.867v10.654  c0,1.375-1.113,2.666-2.475,2.869l-36.506,5.438c-1.357,0.203-2.473-0.658-2.473-1.914c0-1.254,1.117-2.422,2.48-2.598l32.082-4.096  c1.363-0.174,2.479-1.439,2.479-2.816v-4.416C401.903,350.846,400.789,349.555,399.43,349.354z"
   id="path162" />
<path
   d="M399.424,359.455l-32.082,4.094c-1.363,0.176-2.48,1.344-2.48,2.6c0,1.254,1.113,2.115,2.473,1.912l36.506-5.438  c1.359-0.203,2.473-1.492,2.473-2.869v-10.652c0-1.375-1.113-2.666-2.473-2.869l-36.506-5.438c-1.359-0.203-2.473,0.482-2.473,1.521  s1.113,2.053,2.473,2.256l32.096,4.779c1.361,0.203,2.473,1.492,2.473,2.867v4.418C401.903,358.014,400.785,359.279,399.424,359.455  z M399.424,316.24l-32.082,4.094c-1.363,0.176-2.48,1.346-2.48,2.6c0,1.256,1.113,2.115,2.473,1.914l36.506-5.438  c1.359-0.203,2.473-1.494,2.473-2.869v-10.652c0-1.375-1.113-2.666-2.473-2.869l-36.506-5.438c-1.359-0.202-2.473,0.481-2.473,1.521  s1.113,2.054,2.473,2.257l32.096,4.779c1.361,0.203,2.473,1.492,2.473,2.867v4.418C401.903,314.799,400.785,316.066,399.424,316.24z  "
   id="path164" />
<path
   fill="#3D3D3D"
   d="M-172.743,409.96v-18.6h20.214v18.6H-172.743z"
   id="path166" />
<circle
   fill="#EEAB1F"
   cx="-113.623"
   cy="309.758"
   r="3"
   id="circle168" />
<circle
   fill="#EEAB1F"
   cx="-96.497"
   cy="309.758"
   r="2.5"
   id="circle170" />
<path
   fill="#EEAB1F"
   d="M-79.371,307.258c-1.383,0-2.502,1.119-2.502,2.499c0,1.383,1.119,2.501,2.502,2.501  c1.38,0,2.498-1.118,2.498-2.501C-76.873,308.377-77.992,307.258-79.371,307.258z"
   id="path172" />
<circle
   fill="#EEAB1F"
   cx="-62.246"
   cy="309.758"
   r="2.5"
   id="circle174" />
<circle
   fill="#EEAB1F"
   cx="-45.12"
   cy="309.758"
   r="2.5"
   id="circle176" />
<path
   fill="#EEAB1F"
   d="M-27.993,307.258c-1.385,0-2.503,1.119-2.503,2.499c0,1.383,1.118,2.501,2.503,2.501  c1.379,0,2.497-1.118,2.497-2.501C-25.496,308.377-26.615,307.258-27.993,307.258z"
   id="path178" />
<circle
   fill="#EEAB1F"
   cx="-10.868"
   cy="309.758"
   r="2.5"
   id="circle180" />
<path
   fill="#EEAB1F"
   d="M6.257,307.259c-1.384,0-2.503,1.118-2.503,2.498c0,1.383,1.119,2.501,2.503,2.501  c1.379,0,2.497-1.118,2.497-2.501C8.755,308.377,7.636,307.259,6.257,307.259z"
   id="path182" />
<circle
   fill="#EEAB1F"
   cx="23.382"
   cy="309.758"
   r="2.499"
   id="circle184" />
<path
   fill="#EEAB1F"
   d="M40.507,307.257c-1.384,0-2.497,1.119-2.497,2.5c0,1.383,1.113,2.502,2.497,2.502  c1.383,0,2.502-1.119,2.502-2.502C43.009,308.376,41.89,307.257,40.507,307.257z M57.637,307.257c-1.384,0-2.502,1.119-2.502,2.5  c0,1.383,1.118,2.502,2.502,2.502c1.378,0,2.498-1.119,2.498-2.502C60.135,308.376,59.015,307.257,57.637,307.257z"
   id="path186" />
<circle
   fill="#EEAB1F"
   cx="74.762"
   cy="309.758"
   r="2.501"
   id="circle188" />
<circle
   fill="#EEAB1F"
   cx="-130.749"
   cy="292.63"
   r="2.5"
   id="circle190" />
<circle
   fill="#EEAB1F"
   cx="-130.749"
   cy="309.389"
   r="3"
   id="circle192" />
<circle
   fill="#EEAB1F"
   cx="-113.624"
   cy="292.63"
   r="2.5"
   id="circle194" />
<circle
   fill="#EEAB1F"
   cx="-96.498"
   cy="292.63"
   r="2.5"
   id="circle196" />
<path
   fill="#2AAFE5"
   d="M-79.368,285.35c-4.022,0-7.282,3.26-7.281,7.281c0,4.021,3.26,7.28,7.282,7.28  c4.021,0,7.279-3.26,7.279-7.28C-72.088,288.609-75.347,285.35-79.368,285.35z M-79.371,295.13c-1.383,0-2.502-1.12-2.502-2.499  c0-1.38,1.119-2.501,2.5-2.501c1.382,0,2.5,1.121,2.5,2.501C-76.873,294.01-77.992,295.13-79.371,295.13z"
   id="path198" />
<circle
   fill="#EEAB1F"
   cx="-79.372"
   cy="292.63"
   r="2.5"
   id="circle200" />
<path
   fill="#2AAFE5"
   d="M-62.242,285.35c-4.023,0-7.282,3.26-7.282,7.281s3.259,7.28,7.282,7.28c4.021,0,7.279-3.26,7.279-7.28  C-54.962,288.609-58.221,285.35-62.242,285.35z M-62.246,295.13c-1.383,0-2.501-1.12-2.501-2.499c0-1.38,1.118-2.501,2.501-2.501  c1.381,0,2.499,1.121,2.499,2.501C-59.747,294.01-60.866,295.13-62.246,295.13z"
   id="path202" />
<circle
   fill="#EEAB1F"
   cx="-62.246"
   cy="292.63"
   r="2.5"
   id="circle204" />
<circle
   fill="#EEAB1F"
   cx="-45.12"
   cy="292.63"
   r="2.5"
   id="circle206" />
<path
   fill="#EEAB1F"
   d="M-27.993,290.13c-1.385,0-2.503,1.121-2.503,2.501c0,1.379,1.118,2.499,2.503,2.499  c1.379,0,2.497-1.12,2.497-2.499C-25.496,291.251-26.615,290.13-27.993,290.13z"
   id="path208" />
<circle
   fill="#EEAB1F"
   cx="-10.868"
   cy="292.63"
   r="2.5"
   id="circle210" />
<path
   fill="#EEAB1F"
   d="M6.257,290.13c-1.384,0-2.503,1.121-2.503,2.501c0,1.379,1.119,2.499,2.503,2.499  c1.379,0,2.497-1.12,2.497-2.499C8.755,291.251,7.636,290.13,6.257,290.13z"
   id="path212" />
<circle
   fill="#EEAB1F"
   cx="23.384"
   cy="292.628"
   r="2.5"
   id="circle214" />
<path
   fill="#EEAB1F"
   d="M40.507,290.129c-1.384,0-2.497,1.122-2.497,2.502c0,1.381,1.113,2.5,2.497,2.5  c1.383,0,2.502-1.119,2.502-2.5C43.009,291.251,41.89,290.129,40.507,290.129z M57.637,290.129c-1.384,0-2.502,1.122-2.502,2.502  c0,1.381,1.118,2.5,2.502,2.5c1.378,0,2.498-1.119,2.498-2.5C60.135,291.251,59.015,290.129,57.637,290.129z"
   id="path216" />
<circle
   fill="#EEAB1F"
   cx="74.762"
   cy="292.63"
   r="2.501"
   id="circle218" />
<path
   fill="#EEAB1F"
   d="M91.877,307.26c-1.377,0-2.5,1.117-2.5,2.496c0,1.383,1.123,2.5,2.5,2.5c1.383,0,2.499-1.117,2.499-2.5  C94.376,308.377,93.259,307.26,91.877,307.26z"
   id="path220" />
<circle
   fill="#EEAB1F"
   cx="109.003"
   cy="309.758"
   r="2.499"
   id="circle222" />
<circle
   fill="#EEAB1F"
   cx="126.128"
   cy="309.758"
   r="2.499"
   id="circle224" />
<path
   fill="#EEAB1F"
   d="M143.252,307.256c-1.383,0-2.498,1.119-2.498,2.5c0,1.383,1.115,2.502,2.498,2.502s2.504-1.119,2.504-2.502  C145.756,308.377,144.635,307.256,143.252,307.256z M160.385,307.256c-1.383,0-2.506,1.119-2.506,2.5  c0,1.383,1.123,2.502,2.506,2.502c1.379,0,2.496-1.119,2.496-2.502C162.883,308.377,161.764,307.256,160.385,307.256z   M177.51,307.26c-1.383,0-2.5,1.117-2.5,2.496c0,1.383,1.117,2.5,2.5,2.5c1.377,0,2.5-1.117,2.5-2.5  C180.01,308.377,178.887,307.26,177.51,307.26z M194.635,307.256c-1.385,0-2.498,1.121-2.498,2.5c0,1.385,1.113,2.504,2.498,2.504  c1.383,0,2.502-1.119,2.502-2.504C197.137,308.377,196.018,307.256,194.635,307.256z M91.877,290.132c-1.377,0-2.5,1.12-2.5,2.499  s1.123,2.497,2.5,2.497c1.383,0,2.499-1.118,2.499-2.497S93.259,290.132,91.877,290.132z"
   id="path226" />
<circle
   fill="#EEAB1F"
   cx="109.003"
   cy="292.63"
   r="2.498"
   id="circle228" />
<circle
   fill="#EEAB1F"
   cx="126.129"
   cy="292.63"
   r="2.498"
   id="circle230" />
<path
   fill="#EEAB1F"
   d="M143.252,290.129c-1.383,0-2.498,1.122-2.498,2.502c0,1.381,1.115,2.5,2.498,2.5s2.504-1.119,2.504-2.5  C145.756,291.251,144.635,290.129,143.252,290.129z M160.385,290.129c-1.383,0-2.506,1.122-2.506,2.502c0,1.381,1.123,2.5,2.506,2.5  c1.379,0,2.496-1.119,2.496-2.5C162.881,291.251,161.764,290.129,160.385,290.129z M177.51,290.132c-1.383,0-2.5,1.12-2.5,2.499  s1.117,2.497,2.5,2.497c1.377,0,2.5-1.118,2.5-2.497S178.887,290.132,177.51,290.132z M194.635,290.129  c-1.385,0-2.498,1.121-2.498,2.502s1.113,2.5,2.498,2.5c1.383,0,2.502-1.119,2.502-2.5S196.018,290.129,194.635,290.129z"
   id="path232" />
<rect
   style="fill:#2aafe5;fill-opacity:1;stroke-width:0.899606"
   id="rect293"
   width="40.677967"
   height="7.6814137"
   x="-288.05045"
   y="-80.914711"
   transform="rotate(-89.511429)" /><rect
   transform="rotate(-89.511429)"
   y="-63.789337"
   x="-287.90442"
   height="7.6814137"
   width="40.677967"
   id="rect293-2"
   style="fill:#2aafe5;fill-opacity:1;stroke-width:0.899606" /><rect
   style="fill:#2aafe5;fill-opacity:1;stroke-width:0.652011"
   id="rect293-2-3"
   width="21.368502"
   height="7.681252"
   x="60.634705"
   y="-253.48735"
   transform="matrix(-0.99989502,0.01448987,-0.00399825,-0.99999201,0,0)" /><text
   style="stroke-width:0.99999"
   y="270.5564"
   x="-175.85483"
   id="text144-2"
   font-size="11.9999px"
   font-family="sans-serif"
   transform="rotate(-0.14496091)"
   inkscape:transform-center-x="-9.9552736"
   inkscape:transform-center-y="10.954184"><tspan
     id="tspan241-3"
     style="fill:#808080;stroke-width:0.99999">GPIO 14 (TXD)</tspan></text><text
   style="stroke-width:0.99999"
   y="270.88882"
   x="-59.776932"
   id="text146-9"
   font-size="11.9999px"
   font-family="sans-serif"
   transform="rotate(-1.1696115)"><tspan
     id="tspan243-9"
     style="fill:#808080;stroke-width:0.99999">GPIO 15 (RXD)</tspan></text></svg>
